<?xml version="1.0" encoding="utf-8"?>
<!-- Generator: Adobe Illustrator 16.0.0, SVG Export Plug-In . SVG Version: 6.00 Build 0)  -->
<!DOCTYPE svg PUBLIC "-//W3C//DTD SVG 1.1//EN" "http://www.w3.org/Graphics/SVG/1.1/DTD/svg11.dtd">
<svg version="1.1" id="Layer_1" xmlns="http://www.w3.org/2000/svg" xmlns:xlink="http://www.w3.org/1999/xlink" x="0px" y="0px"
	 width="1280px" height="900px" viewBox="0 0 1280 900" enable-background="new 0 0 1280 900" xml:space="preserve">
<rect x="-38.375" y="-31.886" fill="#E91E63" width="1342.433" height="956.952"/>
<path fill="#FFFFFF" d="M927.557,466.139c0,36.371-14.648,63.396-43.947,81.076c-2.778,1.011-5.937,2.905-9.473,5.684
	c-1.263,9.598-2.903,21.721-4.925,36.37c-2.021,6.82-4.673,17.303-7.956,31.446c-5.052,25.004-19.701,47.609-43.947,67.816
	c-22.479,18.689-47.105,30.812-73.879,36.37c-33.593,7.071-68.321,10.607-104.188,10.607c-129.824,0-203.828-40.159-222.013-120.479
	c-5.053-22.479-8.462-42.56-10.229-60.239c-36.371-20.963-54.556-50.516-54.556-88.653c0-16.67,3.536-30.31,10.608-40.917
	c3.536-5.304,8.588-9.977,15.155-14.018c5.809-3.283,11.618-6.693,17.428-10.229c1.768-58.092,16.921-105.324,45.462-141.695
	c26.773-33.845,60.113-54.43,100.021-61.754c15.913-1.516,34.603-4.294,56.072-8.335c6.313-2.778,9.472-9.093,9.472-18.943
	c0-15.912-9.851-23.868-29.551-23.868c-3.284,0-12.124,1.263-26.521,3.789c17.681-16.923,40.286-25.384,67.816-25.384
	c30.813,0,66.806,10.987,107.976,32.961c37.633,19.954,71.353,48.873,101.156,86.76c31.824,40.917,49.884,81.076,54.178,120.478
	c1.769,16.923,2.651,28.921,2.651,35.992c1.011,1.264,2.652,2.399,4.926,3.41C914.802,416.76,927.557,437.345,927.557,466.139z
	 M898.385,460.456c0-11.366-4.294-20.711-12.882-28.036s-18.69-11.618-30.309-12.881c0.252-4.799,0.379-9.724,0.379-14.775
	c0-81.582-35.361-149.271-106.082-203.07c-41.927-31.825-82.466-51.904-121.615-60.239c-6.062-1.263-9.977-1.895-11.745-1.895
	h-13.639c13.386,4.799,20.08,17.933,20.08,39.402c0,27.278-10.861,41.801-32.582,43.569c-7.83,0.505-19.448,1.642-34.855,3.41
	c-52.788,8.587-89.791,34.603-111.007,78.046c-8.587,17.68-13.955,36.687-16.102,57.019c-2.147,20.333-4.104,40.35-5.873,60.05
	c-26.269,2.273-39.401,16.165-39.401,41.675c0,31.572,17.301,54.052,51.904,67.438c0.505,6.567,1.389,16.544,2.651,29.93
	c4.293,55.819,26.016,94.589,65.164,116.312c29.805,16.417,75.646,24.626,137.527,24.626c56.577,0,99.515-7.198,128.813-21.597
	c39.906-19.194,63.521-53.672,70.847-103.429c1.263-10.104,3.157-25.384,5.683-45.843l2.273-2.273
	c9.345-1.263,19.826-7.893,31.445-19.89c11.617-11.998,17.428-22.542,17.428-31.635c0-1.769,0.314-4.42,0.947-7.956
	C898.068,464.875,898.385,462.224,898.385,460.456z M801.773,337.704c0,2.524-1.137,4.672-3.409,6.439h-6.441
	c-7.071-12.629-13.26-21.09-18.563-25.384c-7.072-5.304-16.924-7.956-29.552-7.956c-25.763,0-41.675,11.113-47.736,33.34H686.6
	c-1.263-5.051-1.895-7.197-1.895-6.439c0-13.134,6.82-23.869,20.459-32.204c11.618-7.072,24.374-10.608,38.265-10.608
	c13.892,0,26.646,3.662,38.266,10.987C795.081,313.962,801.773,324.57,801.773,337.704z M824.506,403.626
	c-4.799,14.649-13.639,25.131-26.521,31.446c-6.82-20.458-13.514-34.729-20.08-42.812c-9.599-11.871-23.363-17.807-41.296-17.807
	c-18.438,0-31.824,5.43-40.159,16.291c-4.294,5.557-10.356,19.448-18.187,41.675c2.526-26.015,6.693-44.453,12.502-55.313
	c9.094-17.176,24.626-25.764,46.601-25.764c2.021,0,4.861,0.316,8.523,0.947c3.663,0.632,6.125,0.947,7.389,0.947
	c22.731,1.768,37.129,20.585,43.189,56.45c0.252,0.506,0.758,0.758,1.517,0.758C807.583,410.445,816.424,408.172,824.506,403.626z
	 M788.893,479.777c0,35.612-16.922,53.42-50.768,53.42c-33.593,0-50.389-18.061-50.389-54.179c0-35.107,16.796-52.661,50.389-52.661
	C771.971,426.358,788.893,444.164,788.893,479.777z M595.294,336.946c0,4.799-2.4,7.197-7.199,7.197
	c-2.021,0-5.43-3.535-10.229-10.607c-5.304-8.083-8.588-12.629-9.852-13.639c-8.083-6.062-18.563-9.094-31.445-9.094
	s-22.731,2.778-29.552,8.335c-4.799,3.789-11.112,12.124-18.942,25.005h-6.441c-2.272-1.768-3.41-3.915-3.41-6.439
	c0-13.134,6.693-23.869,20.08-32.204c11.619-7.072,24.374-10.608,38.266-10.608c13.387,0,26.142,3.662,38.265,10.987
	C588.475,313.962,595.294,324.317,595.294,336.946z M590.748,432.419c-6.82-21.216-13.008-35.234-18.564-42.054
	c-8.84-10.608-22.353-15.912-40.538-15.912c-17.681,0-31.192,6.062-40.538,18.186c-6.314,7.83-12.63,21.975-18.943,42.434
	c-12.881-4.042-22.354-14.523-28.415-31.446c11.619,4.546,20.206,6.819,25.763,6.819c1.264,0,2.526-0.757,3.789-2.273
	c7.83-37.886,27.278-56.83,58.345-56.83c8.082,0,16.544,1.643,25.385,4.925c15.911,5.81,26.52,23.111,31.823,51.904
	c1.264,6.82,1.896,11.998,1.896,15.534L590.748,432.419L590.748,432.419z M667.278,546.836
	c-10.104,11.113-19.448,16.67-28.036,16.67c-9.093,0-18.438-6.062-28.036-18.185c10.608,1.768,19.953,2.651,28.036,2.651
	c3.284,0,8.083-0.188,14.396-0.567C659.953,547.026,664.5,546.836,667.278,546.836z M582.413,479.777
	c0,35.612-16.923,53.42-50.769,53.42c-33.593,0-50.389-17.808-50.389-53.42c0-35.613,16.796-53.419,50.389-53.419
	C565.49,426.358,582.413,444.164,582.413,479.777z M690.389,591.163c-15.153,25.005-32.203,37.507-51.146,37.507
	c-19.196,0-35.739-12.881-49.631-38.644c7.83,3.536,19.7,5.304,35.612,5.304h23.868c10.861,0,19.701-0.631,26.521-1.894
	c2.272-0.506,5.557-1.264,9.85-2.273C685.463,591.163,687.105,591.163,690.389,591.163z M729.412,460.456
	c0-6.314-3.284-9.472-9.852-9.472c-6.818,0-10.229,3.409-10.229,10.229c0,5.811,3.41,8.714,10.229,8.714
	C726.128,469.927,729.412,466.77,729.412,460.456z M776.012,488.87c0-1.263-0.126-2.273-0.379-3.031
	c-5.051,0-11.619-1.01-19.701-3.031c-1.01,7.83-6.313,12.755-15.913,14.775v25.384c8.083-0.252,16.103-3.978,24.059-11.176
	C772.034,504.593,776.012,496.953,776.012,488.87z M521.416,461.213c0-6.819-3.031-10.229-9.093-10.229
	c-6.314,0-9.473,3.409-9.473,10.229c0,5.811,2.905,8.714,8.715,8.714C518.132,469.927,521.416,467.022,521.416,461.213z
	 M569.153,493.795v-10.607l-1.896,1.515c-4.293,0-10.733-0.631-19.322-1.895c0.252,3.283-1.263,6.566-4.546,9.851
	c-3.284,3.284-6.566,4.925-9.851,4.925v25.384c5.304-1.01,12.755-3.536,22.353-7.577c1.264-1.01,3.789-4.482,7.577-10.419
	C567.257,499.035,569.153,495.311,569.153,493.795z"/>
</svg>
